<?xml version="1.0" encoding="utf-8"?>
<!-- Generator: Adobe Illustrator 24.1.0, SVG Export Plug-In . SVG Version: 6.00 Build 0)  -->
<svg version="1.1" id="Capa_1" xmlns="http://www.w3.org/2000/svg" xmlns:xlink="http://www.w3.org/1999/xlink" x="0px" y="0px"
	 viewBox="0 0 561.5 71.34" style="enable-background:new 0 0 561.5 71.34;" xml:space="preserve">
<g>
	<g>
		<path d="M18.01,0c9.63,0,18.01,9.26,18.01,20.91s-8.38,20.91-18.01,20.91S0,32.56,0,20.91S8.38,0,18.01,0z M18.01,40.92
			c10.14,0,11.51-12.56,11.51-20s-1.37-20-11.51-20c-10.14,0-11.51,12.56-11.51,20S7.86,40.92,18.01,40.92z"/>
		<path d="M45.19,1.82h-5.64V0.91h16.24c8.49,0,15.05,2.9,15.05,11.08c0,8.01-7.58,11.08-14.48,11.08c-1.94,0-4.22-0.4-5.36-0.97
			v17.9h5.81v0.91H39.55v-0.91h5.64V1.82z M51.01,20.97c0.86,0.57,2.51,1.19,4.39,1.19c3.76,0,9.29-1.99,9.29-9.66
			c0-7.44-3.42-10.68-10.2-10.68h-3.48V20.97z"/>
		<path d="M89.53,1.82h-1.2c-10.14,0-12.42,1.53-12.42,10.85H75V0.91h34.88v11.76h-0.91c0-9.32-2.28-10.85-12.37-10.85h-1.25v38.19
			h5.87v0.91H83.66v-0.91h5.87V1.82z"/>
		<path d="M118.09,1.82h-5.19V0.91h16.19v0.91h-5.19v38.19h5.19v0.91H112.9v-0.91h5.19V1.82z"/>
		<path d="M164.53,13.87h-0.91c0-6.54-5.53-12.96-12.54-12.96c-10.14,0-11.51,12.56-11.51,20s1.37,20,11.51,20
			c7.18,0,12.54-7.05,12.54-14.15h0.91v13.47h-0.91c0-1.14-0.57-2.84-1.94-2.84c-1.71,0-4.73,4.43-10.6,4.43
			c-9.63,0-18.01-9.26-18.01-20.91S141.45,0,151.08,0c5.81,0,8.32,4.15,10.43,4.15c1.6,0,2.11-1.08,2.11-2.44h0.91V13.87z"/>
		<path d="M188.47,27.96h-12.2l-2.34,7.16c-0.4,1.14-0.86,2.5-0.86,3.47c0,0.8,0.68,1.42,2.51,1.42h2.96v0.91h-11.74v-0.91h1.82
			c1.77,0,2.51-0.17,3.59-3.35L184.48,0h0.63l13.85,40.01h4.73v0.91h-16.7v-0.91h5.58L188.47,27.96z M182.31,9.83h-0.11l-5.58,17.22
			h11.57L182.31,9.83z"/>
		<path d="M226.71,1.82h-5.19V0.91h30.49l0.8,9.66h-0.97c-0.23-6.65-3.99-8.75-10.26-8.75h-9.06v18.3h4.27c5.93,0,6.5-3.58,6.5-7.27
			h0.91v15.12h-0.91c0-4.32-0.57-6.93-6.55-6.93h-4.22v18.98h5.36v0.91h-16.36v-0.91h5.19V1.82z"/>
		<path d="M260.91,1.82h-5.02V0.91h30.38l0.68,9.66h-0.91c0-6.54-4.33-8.75-10.37-8.75h-8.95v18.3h4.27c5.93,0,6.5-3.58,6.5-7.27
			h0.91v15.12h-0.91c0-4.32-0.57-6.93-6.55-6.93h-4.22v18.98h7.81c9.23,0,13.68-1.08,13.68-10.74h0.91v11.65h-33.23v-0.91h5.02V1.82
			z"/>
		<path d="M300.06,1.82h-5.7V0.91h17.5c6.55,0,13.68,1.48,13.68,10.06c0,6.93-8.04,8.75-12.2,9.26v0.11
			c6.55,0.57,10.03,1.99,10.89,9.49l0.8,6.93c0.4,3.35,1.99,3.58,2.96,3.58c1.03,0,1.77-0.34,2.34-0.57l0.34,0.74
			c-1.14,0.4-2.56,0.74-4.67,0.74c-6.95,0-7.35-3.69-8.15-10.23l-0.4-3.41c-0.4-3.58-1.42-6.82-7.86-6.82h-3.7v19.21h5.81v0.91
			h-17.32v-0.91h5.7V1.82z M305.87,19.89h2.85c6.72,0,10.66-2.33,10.66-8.92c0-4.55-1.54-9.15-9.63-9.15h-3.88V19.89z"/>
		<path d="M338.07,1.82h-5.7V0.91h17.5c6.55,0,13.68,1.48,13.68,10.06c0,6.93-8.04,8.75-12.2,9.26v0.11
			c6.55,0.57,10.03,1.99,10.89,9.49l0.8,6.93c0.4,3.35,1.99,3.58,2.96,3.58c1.03,0,1.77-0.34,2.34-0.57l0.34,0.74
			c-1.14,0.4-2.56,0.74-4.67,0.74c-6.95,0-7.35-3.69-8.15-10.23l-0.4-3.41c-0.4-3.58-1.42-6.82-7.86-6.82h-3.7v19.21h5.81v0.91
			h-17.32v-0.91h5.7V1.82z M343.88,19.89h2.85c6.72,0,10.66-2.33,10.66-8.92c0-4.55-1.54-9.15-9.63-9.15h-3.88V19.89z"/>
		<path d="M389.53,0c9.63,0,18.01,9.26,18.01,20.91s-8.38,20.91-18.01,20.91s-18.01-9.26-18.01-20.91S379.9,0,389.53,0z
			 M389.53,40.92c10.14,0,11.51-12.56,11.51-20s-1.37-20-11.51-20c-10.14,0-11.51,12.56-11.51,20S379.39,40.92,389.53,40.92z"/>
		<path d="M417.17,3.64h-0.11v33.13c0,2.73,0.91,3.24,3.53,3.24h2.28v0.91h-12.2v-0.91h1.94c2.62,0,3.53-0.51,3.53-3.24V1.82h-5.47
			V0.91h11.97l21.54,29.66h0.11V4.89c0-2.33-0.46-3.07-2.96-3.07h-2.68V0.91h12.02v0.91h-2.51c-2.51,0-2.96,0.74-2.96,3.07v36.37
			h-0.74L417.17,3.64z"/>
		<path d="M472.11,27.96h-12.2l-2.34,7.16c-0.4,1.14-0.85,2.5-0.85,3.47c0,0.8,0.68,1.42,2.51,1.42h2.96v0.91h-11.74v-0.91h1.82
			c1.77,0,2.51-0.17,3.59-3.35L468.12,0h0.63l13.85,40.01h4.73v0.91h-16.7v-0.91h5.58L472.11,27.96z M465.96,9.83h-0.11l-5.59,17.22
			h11.57L465.96,9.83z"/>
		<path d="M499.81,1.82h-1.2c-10.14,0-12.42,1.53-12.42,10.85h-0.91V0.91h34.88v11.76h-0.91c0-9.32-2.28-10.85-12.37-10.85h-1.25
			v38.19h5.87v0.91h-17.55v-0.91h5.87V1.82z"/>
		<path d="M543.49,0c9.63,0,18.01,9.26,18.01,20.91s-8.38,20.91-18.01,20.91c-9.63,0-18.01-9.26-18.01-20.91S533.86,0,543.49,0z
			 M543.49,40.92c10.14,0,11.51-12.56,11.51-20s-1.37-20-11.51-20c-10.14,0-11.51,12.56-11.51,20S533.35,40.92,543.49,40.92z"/>
	</g>
	<g>
		<path d="M329.32,62.52c0,5.76-3.51,8.82-7.8,8.82c-4.43,0-7.55-3.43-7.55-8.49c0-5.32,3.31-8.79,7.8-8.79
			C326.36,54.05,329.32,57.56,329.32,62.52z M316.29,62.8c0,3.58,1.94,6.78,5.36,6.78c3.44,0,5.38-3.15,5.38-6.95
			c0-3.33-1.74-6.81-5.36-6.81C318.09,55.82,316.29,59.12,316.29,62.8z"/>
		<path d="M332.13,54.53c1.05-0.17,2.42-0.32,4.16-0.32c2.14,0,3.71,0.5,4.71,1.39c0.92,0.79,1.47,2.01,1.47,3.5
			c0,1.52-0.45,2.71-1.3,3.58c-1.15,1.22-3.01,1.84-5.13,1.84c-0.65,0-1.25-0.03-1.74-0.15v6.71h-2.17V54.53z M334.3,62.6
			c0.47,0.12,1.07,0.17,1.79,0.17c2.62,0,4.21-1.27,4.21-3.58c0-2.21-1.57-3.28-3.96-3.28c-0.95,0-1.67,0.07-2.04,0.17V62.6z"/>
		<path d="M348.57,56.17h-5.11v-1.84h12.43v1.84h-5.13v14.9h-2.19V56.17z"/>
		<path d="M359.93,54.33v16.74h-2.17V54.33H359.93z"/>
		<path d="M375.44,70.52c-0.8,0.4-2.39,0.79-4.43,0.79c-4.73,0-8.29-2.98-8.29-8.47c0-5.24,3.56-8.79,8.77-8.79
			c2.09,0,3.41,0.45,3.99,0.75l-0.52,1.76c-0.82-0.4-1.99-0.7-3.39-0.7c-3.94,0-6.55,2.51-6.55,6.9c0,4.1,2.37,6.73,6.45,6.73
			c1.32,0,2.67-0.27,3.54-0.7L375.44,70.52z"/>
		<path d="M380.97,65.8l-1.74,5.27h-2.24l5.7-16.74h2.62l5.73,16.74h-2.32l-1.79-5.27H380.97z M386.48,64.11l-1.64-4.82
			c-0.37-1.09-0.62-2.09-0.87-3.05h-0.05c-0.25,0.99-0.52,2.01-0.85,3.03l-1.64,4.84H386.48z"/>
		<path d="M398.78,54.33h9.04v1.81h-6.87v5.56h6.35v1.79h-6.35v7.58h-2.17V54.33z"/>
		<path d="M419.6,63.22h-6.53v6.04h7.27v1.81h-9.44V54.33h9.07v1.81h-6.9v5.29h6.53V63.22z"/>
		<path d="M423.16,54.55c1.1-0.22,2.66-0.35,4.16-0.35c2.32,0,3.81,0.42,4.86,1.37c0.85,0.75,1.32,1.89,1.32,3.18
			c0,2.21-1.39,3.68-3.16,4.27v0.07c1.3,0.45,2.07,1.64,2.47,3.38c0.55,2.33,0.95,3.95,1.3,4.59h-2.24c-0.27-0.47-0.65-1.91-1.12-4
			c-0.5-2.31-1.39-3.18-3.36-3.25h-2.04v7.25h-2.17V54.55z M425.33,62.18h2.22c2.32,0,3.79-1.27,3.79-3.18
			c0-2.16-1.57-3.1-3.86-3.13c-1.05,0-1.79,0.1-2.14,0.2V62.18z"/>
		<path d="M436.56,54.55c1.1-0.22,2.66-0.35,4.16-0.35c2.32,0,3.81,0.42,4.86,1.37c0.85,0.75,1.32,1.89,1.32,3.18
			c0,2.21-1.39,3.68-3.16,4.27v0.07c1.3,0.45,2.07,1.64,2.47,3.38c0.55,2.33,0.95,3.95,1.3,4.59h-2.24c-0.27-0.47-0.65-1.91-1.12-4
			c-0.5-2.31-1.39-3.18-3.36-3.25h-2.04v7.25h-2.17V54.55z M438.73,62.18h2.22c2.32,0,3.79-1.27,3.79-3.18
			c0-2.16-1.57-3.1-3.86-3.13c-1.05,0-1.79,0.1-2.14,0.2V62.18z"/>
		<path d="M464.38,62.52c0,5.76-3.51,8.82-7.8,8.82c-4.43,0-7.55-3.43-7.55-8.49c0-5.32,3.31-8.79,7.8-8.79
			C461.42,54.05,464.38,57.56,464.38,62.52z M451.35,62.8c0,3.58,1.94,6.78,5.36,6.78c3.44,0,5.38-3.15,5.38-6.95
			c0-3.33-1.74-6.81-5.36-6.81C453.15,55.82,451.35,59.12,451.35,62.8z"/>
		<path d="M467.19,71.07V54.33h2.37l5.38,8.47c1.25,1.96,2.22,3.73,3.01,5.44l0.05-0.03c-0.2-2.24-0.25-4.27-0.25-6.88v-7h2.04
			v16.74h-2.19l-5.33-8.49c-1.17-1.86-2.29-3.78-3.14-5.59l-0.08,0.02c0.12,2.11,0.17,4.12,0.17,6.9v7.15H467.19z"/>
		<path d="M486.3,65.8l-1.74,5.27h-2.24l5.7-16.74h2.62l5.73,16.74h-2.32l-1.79-5.27H486.3z M491.8,64.11l-1.64-4.82
			c-0.37-1.09-0.62-2.09-0.87-3.05h-0.05c-0.25,0.99-0.52,2.01-0.85,3.03l-1.64,4.84H491.8z"/>
		<path d="M500.09,56.17h-5.11v-1.84h12.43v1.84h-5.13v14.9h-2.19V56.17z"/>
		<path d="M522.98,62.52c0,5.76-3.51,8.82-7.8,8.82c-4.43,0-7.55-3.43-7.55-8.49c0-5.32,3.31-8.79,7.8-8.79
			C520.01,54.05,522.98,57.56,522.98,62.52z M509.95,62.8c0,3.58,1.94,6.78,5.36,6.78c3.44,0,5.38-3.15,5.38-6.95
			c0-3.33-1.74-6.81-5.36-6.81C511.74,55.82,509.95,59.12,509.95,62.8z"/>
		<path d="M530.77,68.44c0.97,0.6,2.39,1.09,3.89,1.09c2.22,0,3.51-1.17,3.51-2.86c0-1.56-0.9-2.46-3.16-3.33
			c-2.74-0.97-4.43-2.38-4.43-4.74c0-2.61,2.17-4.54,5.43-4.54c1.72,0,2.96,0.4,3.71,0.82l-0.6,1.76c-0.55-0.3-1.67-0.79-3.19-0.79
			c-2.29,0-3.16,1.37-3.16,2.51c0,1.56,1.02,2.33,3.34,3.23c2.84,1.09,4.28,2.46,4.28,4.92c0,2.58-1.92,4.82-5.88,4.82
			c-1.62,0-3.39-0.47-4.28-1.07L530.77,68.44z"/>
		<path d="M542.75,69.78c0-0.92,0.62-1.56,1.49-1.56c0.87,0,1.47,0.65,1.47,1.56c0,0.89-0.57,1.56-1.49,1.56
			C543.35,71.34,542.75,70.67,542.75,69.78z"/>
		<path d="M551.22,65.8l-1.74,5.27h-2.24l5.7-16.74h2.62l5.73,16.74h-2.32l-1.79-5.27H551.22z M556.72,64.11l-1.64-4.82
			c-0.37-1.09-0.62-2.09-0.87-3.05h-0.05c-0.25,0.99-0.52,2.01-0.85,3.03l-1.64,4.84H556.72z"/>
	</g>
</g>
</svg>
