<?xml version="1.0" encoding="UTF-8"?>
<svg id="Capa_2" data-name="Capa 2" xmlns="http://www.w3.org/2000/svg" viewBox="0 0 73.67 41.82">
  <g id="Capa_1-2" data-name="Capa 1">
    <g>
      <path d="M18.01,0c9.63,0,18.01,9.26,18.01,20.91s-8.38,20.91-18.01,20.91S0,32.56,0,20.91,8.38,0,18.01,0Zm0,40.92c10.14,0,11.51-12.56,11.51-20S28.15,.92,18.01,.92,6.5,13.48,6.5,20.92s1.36,20,11.51,20Z"/>
      <path d="M47.57,1.81h-5.19V.9h30.49l.8,9.66h-.97c-.23-6.65-3.99-8.75-10.26-8.75h-9.06V20.11h4.27c5.93,0,6.5-3.58,6.5-7.27h.91v15.12h-.91c0-4.32-.57-6.93-6.55-6.93h-4.22v18.98h5.36v.91h-16.36v-.91h5.19V1.81h0Z"/>
    </g>
  </g>
</svg>