<svg xmlns="http://www.w3.org/2000/svg" viewBox="0 0 36 37"><defs><style>.cls-1{fill:#fb9741;}</style></defs><g id="Capa_2" data-name="Capa 2"><path class="cls-1" d="M35.84,16.21a17.08,17.08,0,0,0-1.27-5,18.43,18.43,0,0,0-2.81-4.69A18.1,18.1,0,0,0,25.1,1.46,15.56,15.56,0,0,0,20.51.16c-.29,0-.58-.11-.87-.16H16.36L14.91.25a16.77,16.77,0,0,0-4.09,1.23,17.76,17.76,0,0,0-3.9,2.39A15.3,15.3,0,0,0,3.89,7,21.37,21.37,0,0,0,2,10.08a25.37,25.37,0,0,0-1.3,3.44,12.31,12.31,0,0,0-.58,3.41.28.28,0,0,1-.07.13v2.8c.05.34.12.67.16,1a17.81,17.81,0,0,0,1.33,5,18.4,18.4,0,0,0,2.65,4.41A16.72,16.72,0,0,0,7.4,33.45a16.83,16.83,0,0,0,5.39,2.73c1,.29,2.09.45,3.14.65.49.09,1,.12,1.47.17h1.2a1.36,1.36,0,0,1,.32-.08,16.51,16.51,0,0,0,5.63-1.21A17.47,17.47,0,0,0,29.17,33a18.09,18.09,0,0,0,3-3.15,18.27,18.27,0,0,0,3.07-6.18c.26-.94.39-1.92.57-2.88.07-.39.11-.78.16-1.18v-2.3C36,16.94,35.88,16.58,35.84,16.21Zm-11.68,12a7.64,7.64,0,0,1-2.74,0,13.11,13.11,0,0,1-3.27-.78,14.06,14.06,0,0,1-4.46-2.66,15.29,15.29,0,0,1-2.8-3.2,14.46,14.46,0,0,1-2.23-5.8c-.11-.83-.2-1.66-.23-2.5a4.52,4.52,0,0,1,3.51-4.51,4.07,4.07,0,0,1,3.28.62,1.06,1.06,0,0,1,.4.63q.51,2.68,1,5.39a.68.68,0,0,1-.46.73c-.71.38-1.42.76-2.13,1.12-.25.13-.33.25-.19.54A10.55,10.55,0,0,0,19,22.9l1.05-2.11c.44-.9.53-.94,1.47-.76l3.94.73.62.09a1.08,1.08,0,0,1,.9.68,4.57,4.57,0,0,1-2.84,6.65Z"/></g></svg>