<svg xmlns="http://www.w3.org/2000/svg" viewBox="0 0 37 37"><defs><style>.cls-1{fill:#fb9741;}</style></defs><g id="Capa_2" data-name="Capa 2"><path class="cls-1" d="M18.5,0A18.5,18.5,0,1,0,37,18.5,18.5,18.5,0,0,0,18.5,0Zm9.3,17.08c0,.24,0,.47-.08.7-.1.52-.17,1-.31,1.55a10.29,10.29,0,0,1-1.3,2.79c-.48.75-1,1.46-1.59,2.17a10.38,10.38,0,0,1-.76.86c-.52.54-1,1.09-1.57,1.61s-1.27,1.14-1.92,1.71a4.23,4.23,0,0,1-1.38,1h-.82a3.29,3.29,0,0,1-.46-.23c-.36-.3-.71-.62-1.07-.94-.67-.6-1.36-1.19-2-1.82a26,26,0,0,1-2.47-2.67,16.91,16.91,0,0,1-1.63-2.46,9.81,9.81,0,0,1-1.1-3.07l-.12-.63v-1.8l0-.09a8.26,8.26,0,0,1,.14-1A9.31,9.31,0,0,1,12.2,9.92a9.05,9.05,0,0,1,2.74-1.74,7.35,7.35,0,0,1,1.91-.55c.23,0,.47-.09.71-.13H19.4s.07,0,.11,0c.25,0,.5,0,.75.1a9.74,9.74,0,0,1,2.93,1.11A9.24,9.24,0,0,1,25.81,11a8.82,8.82,0,0,1,1.32,2.31,8.63,8.63,0,0,1,.63,3,1,1,0,0,0,0,.17Z"/><path class="cls-1" d="M18.47,12.37a4.08,4.08,0,0,0-4,3.82,4.06,4.06,0,1,0,8.11.26A4,4,0,0,0,18.47,12.37Zm-.1,5.91a1.82,1.82,0,0,1-1.7-2,1.81,1.81,0,1,1,1.7,2Z"/></g></svg>