<svg xmlns="http://www.w3.org/2000/svg" viewBox="0 0 36.34 36.9"><defs><style>.cls-1{fill:#fb9741;}</style></defs><g id="Capa_2" data-name="Capa 2"><path class="cls-1" d="M36.3,17.38A10.78,10.78,0,0,0,36.24,16a18.06,18.06,0,0,0-2.09-6.48,18.58,18.58,0,0,0-4.26-5.27,18.25,18.25,0,0,0-4.47-2.8A17.76,17.76,0,0,0,20.74.11C20.15,0,19.57.08,19,0h-1.7a1.28,1.28,0,0,1-.55,0,13.31,13.31,0,0,0-1.55.13,18.09,18.09,0,0,0-10,5.24A18,18,0,0,0,2.62,8.67a18.87,18.87,0,0,0-2.34,5.9A18.23,18.23,0,0,0,0,16.91V20c.08.6.06,1.21.17,1.81a19.3,19.3,0,0,0,1.89,5.47,18.52,18.52,0,0,0,6.35,6.9,18.29,18.29,0,0,0,6.38,2.54c.64.12,1.29.11,1.93.18h2.83c.13-.07.28,0,.42,0a10.44,10.44,0,0,0,1.47-.14,18.56,18.56,0,0,0,5.61-2,18.19,18.19,0,0,0,4.82-4,18.06,18.06,0,0,0,3.74-6.78,15.84,15.84,0,0,0,.67-3.49,7.36,7.36,0,0,1,.06-1.24V17.77A.65.65,0,0,1,36.3,17.38Zm-8.1,7.28a5.46,5.46,0,0,1-2.47,3.39,6.89,6.89,0,0,1-3.29.88c-2.66.13-5.32,0-8,.05a8.12,8.12,0,0,1-2.89-.44,5.36,5.36,0,0,1-3.42-3.67,10.16,10.16,0,0,1-.3-1.9c-.13-1.5,0-3-.06-4.2,0-1.58,0-2.87,0-4.17a8,8,0,0,1,.83-3.71,5.31,5.31,0,0,1,1.88-2,6.21,6.21,0,0,1,2.78-.87c2.56-.22,5.13-.14,7.69-.12a13.26,13.26,0,0,1,2.74.2,5.8,5.8,0,0,1,2.76,1.31,5.53,5.53,0,0,1,1.74,2.92,10.31,10.31,0,0,1,.25,1.84c.11,2.21.12,4.42.06,6.63A15.92,15.92,0,0,1,28.2,24.66Z"/><path class="cls-1" d="M23.45,11.15a6.2,6.2,0,0,0-2-.3c-1.1,0-2.19,0-3.28,0H15.05a8.31,8.31,0,0,0-1.72.19,3.05,3.05,0,0,0-2.39,2.22,9.31,9.31,0,0,0-.25,2.57c0,2.17-.06,4.33.05,6.5a5.09,5.09,0,0,0,.19,1.23,3.16,3.16,0,0,0,2.59,2.34,12.05,12.05,0,0,0,2.24.15c1.92,0,3.85.07,5.77,0a7.38,7.38,0,0,0,1.69-.21,3,3,0,0,0,2.09-1.9,6.37,6.37,0,0,0,.34-2.23c0-2,0-4,0-6a10.78,10.78,0,0,0-.18-2.12A3,3,0,0,0,23.45,11.15Zm-5.26,12a4.71,4.71,0,1,1,.28-9.42,4.72,4.72,0,0,1-.28,9.42Zm4.88-8.6a1,1,0,0,1-1.07-1,1.09,1.09,0,0,1,1.05-1.1,1.06,1.06,0,0,1,1.05,1.1C24.1,14.07,23.55,14.63,23.07,14.55Z"/><path class="cls-1" d="M18.32,16.2a2.17,2.17,0,0,0-2.22,2.22,2.2,2.2,0,1,0,2.22-2.22Z"/></g></svg>