<svg xmlns="http://www.w3.org/2000/svg" viewBox="0 0 36.81 37.63"><defs><style>.cls-1{fill:#fb9741;}</style></defs><g id="Capa_2" data-name="Capa 2"><path class="cls-1" d="M18.41,37.63a18.62,18.62,0,0,0,18.4-18.82A18.61,18.61,0,0,0,18.41,0,18.61,18.61,0,0,0,0,18.81,18.62,18.62,0,0,0,18.41,37.63Zm0-31L29.3,13.55H7.51ZM7.38,14a1.87,1.87,0,0,1,0-.34l10.41,6.63,0,0,0,0a.92.92,0,0,0,.23.09s0,0,0,0a1.09,1.09,0,0,0,.26,0h0a1.07,1.07,0,0,0,.25,0h0a1.09,1.09,0,0,0,.23-.09l0,0,0,0,10.4-6.63a1.87,1.87,0,0,1,0,.34V24.64h0a2,2,0,0,1-2,2H9.35a2,2,0,0,1-2-2Z"/></g></svg>