<?xml version="1.0" encoding="utf-8"?>
<!-- Generator: Adobe Illustrator 24.1.0, SVG Export Plug-In . SVG Version: 6.00 Build 0)  -->
<svg version="1.1" id="Capa_1" xmlns="http://www.w3.org/2000/svg" xmlns:xlink="http://www.w3.org/1999/xlink" x="0px" y="0px"
	 viewBox="0 0 101 101" style="enable-background:new 0 0 101 101;" xml:space="preserve">
<style type="text/css">
	.st0{fill:#FFE2CF;}
</style>
<path class="st0" d="M50.5,0C22.6,0,0,22.6,0,50.5S22.6,101,50.5,101S101,78.4,101,50.5S78.4,0,50.5,0z M75.8,75.8H25.3
	c-2.5,0-4.6-2.1-4.6-4.6c0-2.5,2.1-4.6,4.6-4.6c0,0,0,0,0,0h50.5c2.5,0,4.6,2.1,4.6,4.6C80.3,73.7,78.3,75.7,75.8,75.8z M75.8,55.1
	H25.3c-2.5,0-4.6-2.1-4.6-4.6s2.1-4.6,4.6-4.6c0,0,0,0,0,0h50.5c2.5,0,4.6,2.1,4.6,4.6C80.3,53,78.3,55.1,75.8,55.1z M75.8,34.4
	H25.3c-2.5,0-4.6-2.1-4.6-4.6s2.1-4.6,4.6-4.6c0,0,0,0,0,0h50.5c2.5,0,4.6,2.1,4.6,4.6C80.3,32.4,78.3,34.4,75.8,34.4
	C75.8,34.4,75.8,34.4,75.8,34.4z"/>
</svg>
