<svg id="Capa_1" data-name="Capa 1" xmlns="http://www.w3.org/2000/svg" viewBox="0 0 634.32 556"><defs><style>.cls-1{opacity:0.12;}.cls-2{fill:#b75a15;}</style></defs><g class="cls-1"><path class="cls-2" d="M609.46,556H24.86A24.86,24.86,0,0,1,3.33,518.71L295.63,12.43a24.87,24.87,0,0,1,43.07,0L631,518.71A24.86,24.86,0,0,1,609.46,556ZM67.92,506.28H566.4L317.16,74.58Z"/><path class="cls-2" d="M291.84,456.28q0-11.23,7.32-18.62t20-7.39q12.64,0,20,7.39t7.32,18.62a24.89,24.89,0,0,1-7.12,18.12q-7.12,7.29-20.17,7.29T299,474.4A24.89,24.89,0,0,1,291.84,456.28Zm47.26-62H297.77L293.22,191h50.63Z"/></g></svg>